<svg version="1.1" xmlns="http://www.w3.org/2000/svg" xmlns:xlink="http://www.w3.org/1999/xlink" width="160" height="159.80831" viewBox="0,0,160,159.80831"><g transform="translate(-160,-99.68536)"><g stroke-miterlimit="10"><path d="M160,259.49367v-158.98734h160v158.98734z" fill="#ffc000" stroke="none" stroke-width="0" stroke-linecap="butt"/><text transform="translate(184.625,127.61979) scale(0.73836,0.73836)" font-size="40" xml:space="preserve" fill="#000000" stroke="none" stroke-width="1" stroke-linecap="butt" font-family="&quot;GillSans Condensed Bold&quot;, Sans Serif" font-weight="normal" text-anchor="start"><tspan x="0" dy="0">Cocoa</tspan></text><path d="M160,259.24367v-125.23734h160v125.23734z" fill="#000000" stroke="none" stroke-width="0" stroke-linecap="butt"/><text transform="translate(166.15215,184.26239) scale(0.89817,0.89817)" font-size="40" xml:space="preserve" fill="#ffffff" stroke="none" stroke-width="1" stroke-linecap="butt" font-family="&quot;Gill Sans Heavy Italic&quot;, Sans Serif" font-weight="normal" text-anchor="start"><tspan x="0" dy="0">MOV</tspan><tspan x="0" dy="46.15px">PLAY</tspan></text><text transform="translate(263.40215,185.49095) scale(0.20416,0.20416)" font-size="40" xml:space="preserve" fill="#ffffff" stroke="none" stroke-width="1" stroke-linecap="butt" font-family="&quot;Gill Sans Heavy Italic&quot;, Sans Serif" font-weight="normal" text-anchor="start"><tspan x="0" dy="0">Scene</tspan></text><text transform="translate(287.03909,184.30937) rotate(-4.02942) scale(0.44166,0.44166)" font-size="40" xml:space="preserve" fill="#ffffff" stroke="none" stroke-width="1" stroke-linecap="butt" font-family="&quot;Gill Sans Medium&quot;, Sans Serif" font-weight="normal" text-anchor="start"><tspan x="0" dy="0">2-1</tspan></text><path d="M259.625,189.86979h54.75" fill="none" stroke="#ffffff" stroke-width="1.5" stroke-linecap="round"/><path d="M180.875,116.86979c0,-4.55635 -3.69365,-8.25 -8.25,-8.25c-4.55635,0 -8.25,3.69365 -8.25,8.25c0,4.55635 3.69365,8.25 8.25,8.25c4.55635,0 8.25,-3.69365 8.25,-8.25z" fill="#828282" stroke="#000000" stroke-width="2" stroke-linecap="butt"/><path d="M167.375,116.86979c0,-2.76143 2.23857,-5 5,-5c2.76143,0 5,2.23857 5,5c0,2.76143 -2.23857,5 -5,5c-2.76143,0 -5,-2.23857 -5,-5z" fill="#404040" stroke="none" stroke-width="0.5" stroke-linecap="butt"/></g></g></svg>