<svg version="1.1" xmlns="http://www.w3.org/2000/svg" xmlns:xlink="http://www.w3.org/1999/xlink" width="88.73232" height="88.73232" viewBox="0,0,88.73232,88.73232"><g transform="translate(-195.63384,-135.63384)"><g stroke-miterlimit="10"><path d="M196.88384,180c0,-23.8124 19.30376,-43.11616 43.11616,-43.11616c23.8124,0 43.11616,19.30376 43.11616,43.11616c0,23.8124 -19.30376,43.11616 -43.11616,43.11616c-23.8124,0 -43.11616,-19.30376 -43.11616,-43.11616z" fill="#0080ff" stroke="#007fff" stroke-width="2.5"/><path d="M259.52923,175.6554c0,0 7.08819,3.70852 -0.20875,7.78943c-5.40914,3.02514 -28.68919,20.57886 -31.55019,20.57886c-2.861,0 -5.19,-2.328 -5.19,-5.19v-37.463c0,-2.862 2.39937,-6.26888 5.19,-5.19c2.79063,1.07888 31.75894,19.47471 31.75894,19.47471z" fill="#ffffff" stroke="none" stroke-width="0"/></g></g></svg>