<svg version="1.1" xmlns="http://www.w3.org/2000/svg" xmlns:xlink="http://www.w3.org/1999/xlink" width="88.73232" height="88.73232" viewBox="0,0,88.73232,88.73232"><g transform="translate(-195.63384,-135.63384)"><g stroke-miterlimit="10"><path d="M196.88384,180c0,-23.8124 19.30376,-43.11616 43.11616,-43.11616c23.8124,0 43.11616,19.30376 43.11616,43.11616c0,23.8124 -19.30376,43.11616 -43.11616,43.11616c-23.8124,0 -43.11616,-19.30376 -43.11616,-43.11616z" fill="#0080ff" stroke="#007fff" stroke-width="2.5"/><path d="M220.70127,155.78414h10.22059c0.78083,0 1.41596,1.33893 1.41596,2.98684v42.4586c0,1.64618 -0.63514,2.98627 -1.41596,2.98627h-10.22086c-0.78083,0 -1.41596,-1.34009 -1.41596,-2.98627v-42.4586c0,-1.64792 0.63541,-2.98684 1.41624,-2.98684z" fill="#ffffff" stroke="none" stroke-width="0"/><path d="M249.07844,155.78415h10.22059c0.78083,0 1.41595,1.33892 1.41595,2.98684v42.4586c0,1.64619 -0.63513,2.98627 -1.41595,2.98627h-10.22086c-0.78083,0 -1.41596,-1.34009 -1.41596,-2.98627v-42.4586c0,-1.64792 0.6354,-2.98684 1.41624,-2.98684z" fill="#ffffff" stroke="none" stroke-width="0"/></g></g></svg>